<svg xmlns="http://www.w3.org/2000/svg" xmlns:xlink="http://www.w3.org/1999/xlink" width="187.037" height="39.97" viewBox="0 0 187.037 39.97">
  <g id="Group_162075" data-name="Group 162075" transform="translate(0 -0.001)">
    <rect id="Rectangle_147985" data-name="Rectangle 147985" width="6.296" height="9.218" transform="translate(72.838 0.4)" fill="#fff"/>
    <rect id="Rectangle_147986" data-name="Rectangle 147986" width="6.296" height="23.607" transform="translate(72.838 15.61)" fill="#fff"/>
    <g id="Group_162074" data-name="Group 162074" transform="translate(0 0.001)">
      <g id="Group_162073" data-name="Group 162073" clip-path="url(#clip-path)">
        <path id="Path_83376" data-name="Path 83376" d="M71.81,18.646V30.041a11.169,11.169,0,0,1-.578,3.641,9.346,9.346,0,0,1-1.6,2.928,7.472,7.472,0,0,1-2.412,1.95,6.567,6.567,0,0,1-3.028.713H49.646a6.592,6.592,0,0,1-3.032-.713,7.709,7.709,0,0,1-2.428-1.95,9.411,9.411,0,0,1-1.637-2.928,10.858,10.858,0,0,1-.6-3.641V0h6.372V9.527L64.2,9.522a6.749,6.749,0,0,1,3.028.686,7.17,7.17,0,0,1,2.412,1.927,9.34,9.34,0,0,1,1.6,2.9,10.918,10.918,0,0,1,.578,3.61m-6.092-2.889H48.347v17.32H65.718Z" transform="translate(-5.476 -0.001)" fill="#fff"/>
        <path id="Path_83377" data-name="Path 83377" d="M29.858,20.075V31.47a11.169,11.169,0,0,1-.577,3.641,9.363,9.363,0,0,1-1.6,2.928,7.528,7.528,0,0,1-2.412,1.95,6.568,6.568,0,0,1-3.029.713H7.695a6.6,6.6,0,0,1-3.033-.713,7.719,7.719,0,0,1-2.428-1.95A9.446,9.446,0,0,1,.6,35.11,10.858,10.858,0,0,1,0,31.47V20.075a10.614,10.614,0,0,1,.6-3.61,9.445,9.445,0,0,1,1.637-2.9,7.325,7.325,0,0,1,2.451-1.927,6.8,6.8,0,0,1,3.009-.686H22.244a6.75,6.75,0,0,1,3.029.686,7.187,7.187,0,0,1,2.412,1.927,9.358,9.358,0,0,1,1.6,2.9,10.918,10.918,0,0,1,.577,3.61m-6.427-2.889H6.481v17.32h16.95Z" transform="translate(0 -1.43)" fill="#fff"/>
        <path id="Path_83378" data-name="Path 83378" d="M170.754,20.075V31.47a11.169,11.169,0,0,1-.578,3.641,9.346,9.346,0,0,1-1.6,2.928,7.528,7.528,0,0,1-2.412,1.95,6.567,6.567,0,0,1-3.028.713H148.59a6.592,6.592,0,0,1-3.032-.713,7.709,7.709,0,0,1-2.428-1.95,9.43,9.43,0,0,1-1.638-2.928,10.88,10.88,0,0,1-.6-3.641V20.075a10.636,10.636,0,0,1,.6-3.61,9.429,9.429,0,0,1,1.638-2.9,7.314,7.314,0,0,1,2.45-1.927,6.8,6.8,0,0,1,3.009-.686h14.55a6.749,6.749,0,0,1,3.028.686,7.187,7.187,0,0,1,2.412,1.927,9.34,9.34,0,0,1,1.6,2.9A10.918,10.918,0,0,1,170.754,20.075Zm-6.427-2.889h-16.95v17.32h16.95Z" transform="translate(-18.39 -1.43)" fill="none" stroke="#fff" stroke-miterlimit="10" stroke-width="0.886"/>
        <path id="Path_83379" data-name="Path 83379" d="M106.014,45.019h0" transform="translate(-13.837 -5.876)" fill="none" stroke="#fff" stroke-miterlimit="10" stroke-width="0.886"/>
        <rect id="Rectangle_147987" data-name="Rectangle 147987" width="17.426" height="17.32" transform="translate(92.209 15.756)" fill="none" stroke="#fff" stroke-miterlimit="10" stroke-width="0.886"/>
        <path id="Path_83380" data-name="Path 83380" d="M98.7,10.916v.035h6.39" transform="translate(-12.882 -1.425)" fill="none" stroke="#fff" stroke-miterlimit="10" stroke-width="0.886"/>
        <path id="Path_83381" data-name="Path 83381" d="M98.7,9.549V.443h6.36" transform="translate(-12.882 -0.058)" fill="none" stroke="#fff" stroke-miterlimit="10" stroke-width="0.886"/>
        <line id="Line_26" data-name="Line 26" y1="6.228" transform="translate(92.205 9.526)" fill="none" stroke="#fff" stroke-miterlimit="10" stroke-width="0.886"/>
        <path id="Path_83382" data-name="Path 83382" d="M105.056.443h.03V9.584l15.854,0a6.737,6.737,0,0,1,3.028.686,7.184,7.184,0,0,1,2.412,1.926,9.368,9.368,0,0,1,1.6,2.9,10.919,10.919,0,0,1,.577,3.611V30.1a11.17,11.17,0,0,1-.577,3.641,9.373,9.373,0,0,1-1.6,2.928,7.5,7.5,0,0,1-2.412,1.949,6.567,6.567,0,0,1-3.028.713H105.1v-6.2H98.7V15.812h6.4" transform="translate(-12.882 -0.058)" fill="none" stroke="#fff" stroke-miterlimit="10" stroke-width="0.886"/>
        <path id="Path_83383" data-name="Path 83383" d="M197.128,20.982l.343.353a5.653,5.653,0,0,0,8.052.057l6.512-6.512-4.252-4.251L197.128,20.982" transform="translate(-25.73 -1.388)" fill="none" stroke="#fff" stroke-miterlimit="10" stroke-width="0.886"/>
        <path id="Path_83384" data-name="Path 83384" d="M197.139,32.613,207.6,43.382l4.619-4.62L205.34,31.88a5.265,5.265,0,0,0-7.391-.053l-.81.787" transform="translate(-25.731 -3.96)" fill="none" stroke="#fff" stroke-miterlimit="10" stroke-width="0.886"/>
        <path id="Path_83385" data-name="Path 83385" d="M194.9,32.284l-4.34-4.467L179.993,38.386l4.252,4.251L194.9,32.284" transform="translate(-23.493 -3.631)" fill="none" stroke="#fff" stroke-miterlimit="10" stroke-width="0.886"/>
        <path id="Path_83386" data-name="Path 83386" d="M194.89,20.982l-4.34,4.467L179.982,14.88l4.252-4.251L194.89,20.982" transform="translate(-23.492 -1.388)" fill="none" stroke="#fff" stroke-miterlimit="10" stroke-width="0.886"/>
      </g>
    </g>
  </g>
</svg>
